<svg
  width="15"
  viewBox="0 0 15 16"
  fill="none"
  xmlns="http://www.w3.org/2000/svg"
>
  <path
    fill-rule="evenodd"
    clip-rule="evenodd"
    d="M10.3672 4.60455C9.5899 3.86136 8.60126 3.48295 7.50012 3.48295C5.54672 3.48295 3.89331 4.80227 3.30353 6.575C3.15353 7.025 3.06818 7.5057 3.06818 8.00002C3.06818 8.49434 3.15341 8.97502 3.30341 9.42502C3.89318 11.1977 5.54672 12.5171 7.50012 12.5171C8.50915 12.5171 9.3682 12.2512 10.0398 11.8013C10.8341 11.2695 11.3625 10.475 11.5364 9.53749H7.5V6.63635H14.5636C14.6523 7.12726 14.7 7.63862 14.7 8.17044C14.7 10.4545 13.8818 12.3772 12.4637 13.6829C11.2227 14.8284 9.52512 15.5 7.50012 15.5C4.56831 15.5 2.03194 13.8194 0.797852 11.3682C0.289897 10.3557 0 9.21025 0 8.00002C0 6.78979 0.289773 5.64434 0.797727 4.63184C2.03182 2.1807 4.56831 0.5 7.50012 0.5C9.52172 0.5 11.2194 1.24318 12.5183 2.45341L10.3672 4.60455Z"
    fill="white"
  />
</svg>