<svg
  width="14"
  height="16"
  viewBox="0 0 14 16"
  fill="none"
  xmlns="http://www.w3.org/2000/svg"
>
  <path
    d="M13.0969 5.45525C13.0041 5.52725 11.3657 6.45046 11.3657 8.50325C11.3657 10.8777 13.4505 11.7177 13.5129 11.7385C13.5033 11.7897 13.1817 12.8889 12.4137 14.0089C11.7289 14.9945 11.0137 15.9785 9.92571 15.9785C8.83771 15.9785 8.5577 15.3465 7.3017 15.3465C6.0777 15.3465 5.64251 15.9993 4.64731 15.9993C3.6521 15.9993 2.9577 15.0873 2.1593 13.9673C1.2345 12.6521 0.487305 10.6089 0.487305 8.66965C0.487305 5.55925 2.5097 3.90965 4.5001 3.90965C5.5577 3.90965 6.4393 4.60405 7.1033 4.60405C7.7353 4.60405 8.72091 3.86805 9.9241 3.86805C10.3801 3.86805 12.0185 3.90965 13.0969 5.45525ZM9.3529 2.55125C9.8505 1.96085 10.2025 1.14165 10.2025 0.322455C10.2025 0.208855 10.1929 0.0936545 10.1721 0.000854492C9.3625 0.0312545 8.39931 0.540055 7.81851 1.21365C7.36251 1.73205 6.9369 2.55125 6.9369 3.38165C6.9369 3.50645 6.95771 3.63125 6.96731 3.67125C7.01851 3.68085 7.10171 3.69205 7.18491 3.69205C7.9113 3.69205 8.8249 3.20565 9.3529 2.55125Z"
    fill="white"
  />
</svg>