<svg width="19" height="14" viewBox="0 0 19 14" fill="none" xmlns="http://www.w3.org/2000/svg">
<path d="M8.08396 14.0001L8.08396 2.54962L0.00390625 0.00506592L8.08396 14.0001Z" fill="#5C7BAD"/>
<path d="M8.08396 14.0001L8.08396 2.54962L0.00390625 0.00506592L8.08396 14.0001Z" fill="url(#paint0_linear_257_602)" fill-opacity="0.2" style="mix-blend-mode:soft-light"/>
<path d="M8.08006 2.54456V3.21635L0.47405 0.821079L0 0L8.08006 2.54456Z" fill="white" fill-opacity="0.55" style="mix-blend-mode:soft-light"/>
<path d="M10.0312 14.0001L10.0313 2.54956L18.1113 0.00500488L10.0312 14.0001Z" fill="#7997C9"/>
<path d="M10.0312 14.0001L10.0313 2.54956L18.1113 0.00500488L10.0312 14.0001Z" fill="url(#paint1_linear_257_602)" fill-opacity="0.7" style="mix-blend-mode:soft-light"/>
<path d="M10.0347 2.54456V3.21635L17.6407 0.821079L18.1147 0L10.0347 2.54456Z" fill="white" fill-opacity="0.65" style="mix-blend-mode:soft-light"/>
<defs>
<linearGradient id="paint0_linear_257_602" x1="8.06167" y1="4.24599" x2="3.16856" y2="4.246" gradientUnits="userSpaceOnUse">
<stop stop-color="white"/>
<stop offset="1" stop-color="white" stop-opacity="0"/>
</linearGradient>
<linearGradient id="paint1_linear_257_602" x1="10.0534" y1="9.75919" x2="14.9465" y2="9.75919" gradientUnits="userSpaceOnUse">
<stop stop-color="white"/>
<stop offset="1" stop-color="white" stop-opacity="0"/>
</linearGradient>
</defs>
</svg>
