<svg
  width="17"
  height="18"
  viewBox="0 0 17 18"
  fill="none"
  xmlns="http://www.w3.org/2000/svg"
>
  <path
    fill-rule="evenodd"
    clip-rule="evenodd"
    d="M8.49923 0.831697C3.8751 0.831697 0.125 4.5813 0.125 9.20697C0.125 12.9067 2.52447 16.046 5.85246 17.1539C6.27148 17.2306 6.42418 16.972 6.42418 16.7498C6.42418 16.5509 6.41698 16.0244 6.41287 15.3257C4.08333 15.8316 3.59181 14.2028 3.59181 14.2028C3.21084 13.2352 2.66175 12.9776 2.66175 12.9776C1.90134 12.4584 2.71933 12.4686 2.71933 12.4686C3.55994 12.5278 4.00209 13.3319 4.00209 13.3319C4.74913 14.6116 5.96249 14.2419 6.43961 14.0275C6.5157 13.4866 6.73215 13.1175 6.97122 12.9082C5.1116 12.6964 3.15634 11.9782 3.15634 8.76893C3.15634 7.85428 3.48282 7.10725 4.01855 6.52165C3.93217 6.30982 3.64477 5.4584 4.10081 4.3052C4.10081 4.3052 4.80363 4.08 6.40361 5.16328C7.07148 4.97768 7.78818 4.88514 8.50026 4.88154C9.21182 4.88514 9.92801 4.97768 10.5969 5.16328C12.1959 4.08 12.8977 4.3052 12.8977 4.3052C13.3547 5.4584 13.0673 6.30982 12.9815 6.52165C13.5182 7.10725 13.8421 7.85428 13.8421 8.76893C13.8421 11.9864 11.8838 12.6943 10.0185 12.9015C10.3188 13.1602 10.5866 13.6712 10.5866 14.4527C10.5866 15.572 10.5763 16.4753 10.5763 16.7498C10.5763 16.974 10.7275 17.2347 11.1522 17.1529C14.4776 16.0429 16.875 12.9062 16.875 9.20697C16.875 4.5813 13.1249 0.831697 8.49923 0.831697Z"
    fill="white"
  />
</svg>